<?xml version="1.0" encoding="utf-8"?>
<!-- Generator: Adobe Illustrator 19.0.0, SVG Export Plug-In . SVG Version: 6.00 Build 0)  -->
<svg version="1.1" id="Layer_1" xmlns="http://www.w3.org/2000/svg" xmlns:xlink="http://www.w3.org/1999/xlink" x="0px" y="0px"
	 width="1400px" height="980px" viewBox="0 0 1400 980" style="enable-background:new 0 0 1400 980;" xml:space="preserve">
<style type="text/css">
	.st0{clip-path:url(#XMLID_124_);}
	.st1{fill:#F6DFC0;}
	.st2{fill:#FFEFD8;}
	.st3{fill:#734F37;}
	.st4{fill:#685344;}
	.st5{fill:#A58E76;}
	.st6{fill:#CCB79E;}
	.st7{fill:#DDC9AF;}
	.st8{fill:#FFFFFF;}
	.st9{fill:#A38B6F;}
	.st10{fill:#105250;}
	.st11{fill:#133942;}
	.st12{fill:#582216;}
	.st13{fill:#C89755;}
	.st14{fill:#B27934;}
	.st15{fill:#7D533B;}
	.st16{fill:#541E12;}
	.st17{fill:url(#XMLID_126_);}
	.st18{fill:#C9B8A1;}
	.st19{fill:#C99657;}
	.st20{fill:#E59933;}
	.st21{fill:#F4B651;}
	.st22{fill:#8C7460;}
	.st23{fill:#E5CFB7;}
	.st24{fill:#C1781F;}
	.st25{fill:#E1A374;}
	.st26{fill:#CE8E63;}
	.st27{fill:#B7805C;}
	.st28{fill:#54362E;}
	.st29{fill:url(#XMLID_127_);}
	.st30{fill:url(#XMLID_128_);}
	.st31{fill:url(#XMLID_129_);}
	.st32{fill:url(#XMLID_200_);}
	.st33{fill:#994F6D;}
	.st34{fill:#CE86A6;}
	.st35{fill:#AA6139;}
</style>
<g id="XMLID_125_">
	<defs>
		<rect id="XMLID_121_" width="1400" height="980"/>
	</defs>
	<clipPath id="XMLID_124_">
		<use xlink:href="#XMLID_121_"  style="overflow:visible;"/>
	</clipPath>
	<g id="XMLID_118_" class="st0">
		<rect id="XMLID_1_" class="st1" width="1400" height="980"/>
		<g id="XMLID_112_">
			<path id="XMLID_100_" class="st2" d="M1410.9,590.9c-23.5-4.1-44,1.6-57.2,21.4c-5.5,8.2-4.9,23.6-10.9,29.9
				c-12.2,12.8-16.4,3.9-30.8,9.6c-49,19.3-28.6,70.2-66.1,94.8c-28.8,18.9-32-0.8-57.7-3.2c-38.6-3.7-37.6,34.2-53.7,53.4
				c-10.3,12.2-30.6,11.9-41.4,22.8c-9.2,9.2-12.4,24.1-27.4,35.3c-10,7.5-21.8,19.3-33.3,23.4c-24.7,8.9-47.5-3.5-71.1,10.8
				c-39.1,23.8-70.2,55.2-114,75.3c-42.8,19.6-89.7,29.3-134,45.5c-51.1,18.7-101.9,37.1-154.7,51.8c-39.5,11-94.7,11.6-127.8,35.4
				c74.5,2.1,151.3-27.2,220.4-46.9c62.8-17.8,129.4-34.1,188.9-60.2c67.3-29.5,137-54.1,208.3-59.7c76.5-6,97.1-101.4,171.1-106.1
				c5.1,10.2,98.8-6.1,116.1-13.8c43.5-19.6,78-59.3,107.8-94.2c21.9-25.7,24.7-36.7,19.1-72.1
				C1456.7,606.6,1453.2,602.2,1410.9,590.9z"/>
			<path id="XMLID_109_" class="st2" d="M-47.3,832.6c16.5-11.6,32.1-33.9,54.1-38.4c14.4-2.9,23.6,4.2,37.4,4
				c19.8-0.4,30.1-14.6,48-16.8c12-1.4,22.6,8.7,35.8,8.9c27,0.3,41.3-23.8,66.2-29c7-1.5,24-2.3,31.7,0.9
				c5.9,2.4,5.6,14.8,6.4,15.1c29.2,8.1,93.6-36.4,123.7-48.6c33.6-13.7,68.9-29.7,104.3-45.8c28.8-13.1,63.2-38.8,95.3-42.7
				c-33.5,32.2-91.3,49.6-133.1,70.4c-48.4,24.1-99.8,40.1-147.2,64.8c-88.3,46-179.6,82-272.9,115.7c-9.1,3.3-36.4,16.7-46.2,10.6
				C-64.8,888.3-53.8,841.2-47.3,832.6z"/>
			<path id="XMLID_110_" class="st2" d="M57.8,1000.3c55.4-7.3,114.2-37.4,168-55.1c23.2-7.6,38.9-13.1,62.4-6.1
				c18.7,5.5,12.5,13.7,37.7,10.1c28-4,66.6-4.2,92.7-13.3c29.3-10.2,61.8-54.1,94.8-47.3c2.3,22.8-34.4,15.2-32.1,41.4
				c9.9-2.7,22,0.9,29.4,0.7c24.1-0.6,42.5-5.9,66.3-16.3c21.8-9.5,43.6-12,64.8-20.2c33.1-12.8,56.6-45,88.3-61.8
				c48-25.3,94.7-51.3,143.5-75.6c47-23.4,100.1-52.8,150-69c-6.8,23.8-23.7,27.2-44.5,35.7c-32.8,13.4-60.9,32.7-90.4,51.9
				c-71.5,46.5-154.8,80.6-228.5,125c-68.1,41-154,63.4-231.2,85.8c-31.3,9.1-70.6,13.7-98.6,30.1c-15.7,9.1-20.3,24.6-42.6,25.5
				c3.9-30.4,109.4-72.9,144.6-85.5c-35.4-5.7-77.6,15.6-108,27.3c-58.8,22.7-120.3,52.2-184.6,58.3c-15.9,1.5-62.4,5.2-79.2-7.4
				C44.6,1022.5,42.1,1000,57.8,1000.3z"/>
			<path id="XMLID_111_" class="st2" d="M1398.9,448.9c-28.4,13.5-25.6,35.2-40.5,58.2c-15.3,23.5-38,12.1-55.7,26.6
				c-8.6,7-10.7,24.6-19.4,33.2c-8.8,8.8-24.1,13.1-34.5,20.1c-18.5,12.6-35.7,26.6-53.2,40.2c38.9-7.2,81.4-44.5,114-66.5
				c28.4-19.2,56.6-36,81.7-58.7c15.9-14.3,43.3-30.3,43.8-54.7C1435.8,416.3,1415.2,430.1,1398.9,448.9z"/>
		</g>
		<g id="XMLID_3_">
			<g id="XMLID_2_">
				<g id="XMLID_483_">
					<g id="XMLID_488_">
						
							<rect id="XMLID_489_" x="704.8" y="-360.4" transform="matrix(0.4969 0.8678 -0.8678 0.4969 834.4468 -334.6306)" class="st3" width="2" height="1825.5"/>
					</g>
					<g id="XMLID_486_">
						
							<rect id="XMLID_487_" x="127" y="-178.1" transform="matrix(0.5582 0.8297 -0.8297 0.5582 143.7222 -59.7864)" class="st3" width="2" height="566.4"/>
					</g>
					<g id="XMLID_484_">
						
							<rect id="XMLID_485_" x="316.1" y="-284.8" transform="matrix(0.5895 0.8078 -0.8078 0.5895 356.0806 -141.3224)" class="st3" width="2" height="1129"/>
					</g>
				</g>
			</g>
			<g id="XMLID_391_">
				<path id="XMLID_103_" class="st4" d="M96.8,106.9c0,0,25.5,18.4,57.8,0c0,0-0.5-14.9-10-18.4c-9.4-3.5-30.8,1-38.8,5.5
					S96.8,106.9,96.8,106.9z"/>
				<path id="XMLID_101_" class="st4" d="M101.7,115.1c0,0,21.1,15.3,47.9,0c0,0-0.4-12.4-8.3-15.3c-7.8-2.9-25.6,0.8-32.2,4.5
					C102.6,108.1,101.7,115.1,101.7,115.1z"/>
				<rect id="XMLID_98_" x="110" y="101.2" class="st5" width="31.3" height="23.9"/>
				<ellipse id="XMLID_97_" class="st4" cx="125.7" cy="125.2" rx="15.7" ry="3.5"/>
				<path id="XMLID_94_" class="st5" d="M130.3,151.3H121v-25c0-2.6,2.1-4.7,4.7-4.7h0c2.6,0,4.7,2.1,4.7,4.7V151.3z"/>
				<g id="XMLID_99_">
					<path id="XMLID_102_" class="st6" d="M125.7,104.1c10.8,0,20,4.5,24,11c1.3-2.2,2-4.5,2-7c0-9.9-11.6-18-26-18
						c-14.4,0-26,8.1-26,18c0,2.5,0.7,4.8,2,7C105.6,108.6,114.9,104.1,125.7,104.1z"/>
				</g>
				<g id="XMLID_104_">
					<path id="XMLID_105_" class="st6" d="M125.7,93.7c13,0,24.1,5.5,28.9,13.3c1.6-2.6,2.5-5.4,2.5-8.4c0-12-14-21.7-31.3-21.7
						c-17.3,0-31.3,9.7-31.3,21.7c0,3,0.9,5.8,2.5,8.4C101.5,99.2,112.7,93.7,125.7,93.7z"/>
				</g>
			</g>
			<g id="XMLID_369_">
				<path id="XMLID_91_" class="st7" d="M656.9,76.4c0,0-18.2,13.5-41.5,14.8C592.1,92.4,572.6,81,572.6,81s18.2-13.5,41.5-14.8
					C637.4,65,656.9,76.4,656.9,76.4z"/>
				<path id="XMLID_95_" class="st7" d="M640.6,60.5c3.6,1.4,3.9,6.4,0.4,8.2c-6.5,3.4-16.6,7.5-28.1,8.1s-22.1-2.4-28.8-5.1
					c-3.6-1.4-3.9-6.4-0.4-8.2c6.5-3.4,16.6-7.5,28.1-8.1C623.3,54.8,633.8,57.8,640.6,60.5z"/>
				<path id="XMLID_96_" class="st7" d="M638.1,48.7c3.6,1.4,3.9,6.4,0.4,8.2c-6.5,3.4-16.6,7.5-28.1,8.1s-22.1-2.4-28.8-5.1
					c-3.6-1.4-3.9-6.4-0.4-8.2c6.5-3.4,16.6-7.5,28.1-8.1C620.8,43,631.3,46,638.1,48.7z"/>
				<path id="XMLID_389_" class="st8" d="M581.5,60c0,0-0.1,0-0.2-0.1c-0.1-0.1-0.4-0.1-0.6-0.3c-0.5-0.3-1.3-0.8-1.8-1.8
					c-0.5-1-0.8-2.5-0.2-4c0.3-0.8,0.9-1.5,1.6-2.1c0.4-0.3,0.8-0.5,1.2-0.7c0.4-0.2,0.8-0.4,1.2-0.7c3.3-1.8,7.4-3.6,11.9-5
					c2.3-0.7,4.6-1.3,7.1-1.8c2.5-0.5,4.9-0.8,7.5-0.9c2.5-0.1,5.1-0.1,7.5,0.1c2.5,0.2,4.9,0.6,7.2,1c4.6,0.9,8.8,2.3,12.3,3.7
					c0.4,0.2,0.9,0.3,1.3,0.5c0.2,0.1,0.4,0.2,0.6,0.3c0.3,0.1,0.4,0.2,0.6,0.3c0.8,0.5,1.5,1.2,1.8,1.9c0.8,1.5,0.7,3,0.3,4
					c-0.4,1.1-1.1,1.7-1.6,2c-0.2,0.2-0.5,0.3-0.6,0.3c-0.1,0.1-0.2,0.1-0.2,0.1s0.1,0,0.2-0.1c0.1-0.1,0.3-0.2,0.5-0.4
					c0.4-0.4,1-1.1,1.3-2.1c0.3-1,0.3-2.4-0.5-3.5c-0.4-0.6-0.9-1.1-1.6-1.4c-0.7-0.3-1.6-0.6-2.5-0.9c-3.5-1.1-7.7-2.3-12.3-3
					c-2.3-0.4-4.6-0.6-7-0.8c-2.4-0.2-4.8-0.2-7.3,0c-2.4,0.1-4.9,0.4-7.2,0.8c-2.4,0.4-4.7,0.9-6.9,1.6c-4.4,1.2-8.5,2.8-11.9,4.3
					c-0.4,0.2-0.8,0.4-1.2,0.6c-0.2,0.1-0.4,0.2-0.6,0.3c-0.2,0.1-0.3,0.2-0.5,0.3c-0.7,0.4-1.2,1-1.5,1.6c-0.7,1.2-0.5,2.6-0.2,3.6
					c0.4,1,1,1.6,1.5,1.9c0.2,0.2,0.4,0.3,0.6,0.3C581.5,59.9,581.5,60,581.5,60z"/>
				<path id="XMLID_93_" class="st9" d="M625,125.6h-20.5V82.2c0-5.7,4.6-10.2,10.3-10.2l0,0c5.7,0,10.3,4.6,10.3,10.2V125.6z"/>
				<path id="XMLID_375_" class="st8" d="M572.6,81c0,0,0.3-0.2,0.8-0.6c0.5-0.4,1.3-1,2.3-1.7c1-0.7,2.3-1.5,3.7-2.4
					c0.7-0.4,1.5-0.9,2.3-1.4c0.8-0.4,1.7-0.9,2.7-1.4c0.9-0.5,1.9-0.9,3-1.4c1-0.5,2.1-0.9,3.2-1.4c1.1-0.4,2.3-0.9,3.5-1.3
					c1.2-0.4,2.4-0.8,3.7-1.2c1.3-0.3,2.6-0.7,3.9-1.1c1.3-0.3,2.7-0.6,4-0.9c1.4-0.2,2.8-0.4,4.2-0.6c1.4-0.1,2.8-0.3,4.3-0.4
					c1.4,0,2.8,0,4.2-0.1c1.4,0.1,2.8,0.1,4.2,0.2c1.4,0.1,2.8,0.3,4.1,0.4c1.3,0.2,2.7,0.4,4,0.6c1.3,0.3,2.6,0.5,3.8,0.8
					c1.2,0.3,2.4,0.6,3.6,1c1.2,0.4,2.3,0.7,3.4,1c1.1,0.4,2.1,0.8,3.1,1.1c1,0.4,1.9,0.8,2.8,1.1c0.9,0.4,1.7,0.8,2.5,1.1
					c1.5,0.7,2.9,1.4,4,2c1.1,0.6,1.9,1.1,2.5,1.4c0.6,0.3,0.9,0.5,0.9,0.5s-0.3-0.2-0.9-0.4c-0.6-0.3-1.5-0.7-2.6-1.1
					c-1.1-0.5-2.5-1-4.1-1.6c-0.8-0.3-1.6-0.6-2.5-0.9c-0.9-0.3-1.8-0.6-2.8-0.9c-1-0.3-2-0.6-3.1-0.9c-1.1-0.3-2.2-0.6-3.3-0.9
					c-1.2-0.3-2.3-0.5-3.6-0.8c-1.2-0.2-2.5-0.4-3.7-0.7c-1.3-0.2-2.6-0.4-3.9-0.5c-1.3-0.1-2.7-0.2-4-0.3c-1.3,0-2.7-0.1-4.1-0.1
					c-1.4,0-2.8,0.1-4.2,0.1c-1.4,0.1-2.7,0.2-4.1,0.3c-1.4,0.2-2.7,0.4-4,0.6c-1.3,0.3-2.6,0.5-4,0.8c-1.3,0.3-2.6,0.6-3.8,0.9
					c-1.2,0.4-2.5,0.7-3.7,1.1c-1.2,0.4-2.3,0.8-3.5,1.2c-1.1,0.4-2.2,0.8-3.2,1.2c-1,0.4-2,0.8-3,1.2c-0.9,0.4-1.9,0.8-2.7,1.2
					c-0.9,0.4-1.7,0.8-2.4,1.2c-1.5,0.8-2.8,1.5-3.9,2.1c-1.1,0.6-1.9,1.1-2.4,1.4C572.9,80.8,572.6,81,572.6,81z"/>
				<path id="XMLID_390_" class="st8" d="M643.2,62.2c-0.4-0.7-1-1.4-1.8-1.9c-0.2-0.1-0.3-0.2-0.6-0.3c-0.2-0.1-0.4-0.2-0.6-0.3
					c-0.4-0.2-0.8-0.4-1.3-0.5c-3.5-1.4-7.7-2.8-12.3-3.7c-2.3-0.4-4.7-0.8-7.2-1c-2.5-0.2-5.1-0.2-7.5-0.1
					c-2.6,0.2-5.1,0.5-7.5,0.9c-2.4,0.4-4.8,1.1-7.1,1.8c-4.5,1.4-8.5,3.2-11.9,5c-0.4,0.2-0.8,0.4-1.2,0.7
					c-0.4,0.2-0.8,0.4-1.2,0.7c-0.8,0.6-1.3,1.3-1.6,2.1c-0.6,1.5-0.3,3,0.2,4c0.5,1,1.3,1.6,1.8,1.8c0.2,0.2,0.5,0.2,0.6,0.3
					c0.1,0.1,0.2,0.1,0.2,0.1s-0.1,0-0.2-0.1c-0.1-0.1-0.3-0.2-0.6-0.3c-0.5-0.3-1.1-0.9-1.5-1.9c-0.4-1-0.5-2.3,0.1-3.6
					c0.3-0.6,0.8-1.2,1.5-1.6c0.2-0.1,0.3-0.2,0.5-0.3c0.2-0.1,0.4-0.2,0.6-0.3c0.4-0.2,0.8-0.4,1.2-0.6c3.4-1.5,7.4-3.1,11.9-4.3
					c2.2-0.6,4.5-1.1,6.9-1.6c2.4-0.4,4.8-0.7,7.2-0.8c2.5-0.1,4.9-0.1,7.3,0c2.4,0.2,4.8,0.4,7,0.8c4.5,0.7,8.7,1.9,12.3,3
					c0.9,0.3,1.8,0.6,2.5,0.9c0.7,0.3,1.2,0.8,1.6,1.4c0.8,1.2,0.8,2.5,0.5,3.5c-0.3,1-0.8,1.7-1.3,2.1c-0.2,0.2-0.4,0.3-0.5,0.4
					c-0.1,0.1-0.2,0.1-0.2,0.1s0.1,0,0.2-0.1c0.1-0.1,0.3-0.2,0.6-0.3c0.5-0.3,1.2-0.9,1.6-2C643.8,65.2,644,63.6,643.2,62.2z"/>
			</g>
			<g id="XMLID_69_">
				<path id="XMLID_79_" class="st10" d="M644.5,678.3c21.1-9.9,44.3-14.7,67.6-16.8c23.2-2,46.6-1.4,69.9-1.1
					c5.6,0.1,11.5,0.4,15.6-3.5c-2-21.3-4.6-42.3-6.6-63.7c-25.5,1.5-51.1,3-76.1,8s-49.6,13.9-70.3,28.9
					C642.6,646,641.6,662.7,644.5,678.3z"/>
				<path id="XMLID_332_" class="st11" d="M777.7,594.1c-8.1,8.2-15.7,17.2-22.7,25.9c-10.7,12.5-18.6,26.1-24.7,40.4
					c17.2-0.6,34.5-0.2,51.7,0c5.6,0.1,11.5,0.4,15.6-3.5c-2-21.3-4.6-42.3-6.6-63.7C786.6,593.6,782.2,593.8,777.7,594.1z"/>
				<path id="XMLID_82_" class="st3" d="M652.7,798.1c8.1-0.8,16.8-2.9,24.3-6.1c-0.1-9.5-6.5-18.9-7.4-28.3
					c-0.4-4.4-0.9-8.9-1.3-13.3c-4.5,0.7-8.8,0.3-13.3,1C653.5,767.5,654.2,782,652.7,798.1z"/>
				<path id="XMLID_81_" class="st11" d="M646.8,754.5c10,3.5,21.9,1.9,31.6-2.5c-1.5-26.3-6.3-52.5-14.3-77.6
					c-4.8-0.3-10.1-1-14.8-1.3L646.8,754.5z"/>
				<path id="XMLID_80_" class="st12" d="M636.9,674.4c1.5,3.4,5.8,4.6,9.5,5.1c7.3,1,15.2,1.4,22.4,0.6c0.4-3.5,0.8-7.4,1.2-10.8
					c-13.5-3.5-26-10.5-36.1-20.1C634.2,657.6,633.4,666.6,636.9,674.4z"/>
			</g>
			<polygon id="XMLID_84_" class="st13" points="95.6,125.6 927.9,435.8 924.7,447.9 95.6,175.1 			"/>
			<polygon id="XMLID_86_" class="st14" points="95.6,125.6 67.1,149.6 81.4,187.1 95.6,175.1 			"/>
			<polygon id="XMLID_87_" class="st15" points="81.4,187.1 95.6,175.1 924.7,447.9 909.4,452.6 			"/>
			<polygon id="XMLID_88_" class="st2" points="385,243.7 405,247.7 565,462.3 565,485.7 			"/>
			<path id="XMLID_89_" class="st16" d="M402.5,254.7c-1.5-0.3-2.4-2.1-1.8-3.5c5.3-0.7,10.3-1.7,15.5-2.3c1.1,0.6,2.2,2,2.2,3.2
				c0.1,1.2-0.5,2.5-1.5,3.2C412.7,255,406.8,255.6,402.5,254.7z"/>
			<polygon id="XMLID_90_" class="st2" points="646.3,447.9 758.8,364.7 773.2,383 648.3,474.8 			"/>
			<g id="XMLID_77_">
				<linearGradient id="XMLID_126_" gradientUnits="userSpaceOnUse" x1="543.3407" y1="571.2242" x2="651.3126" y2="561.3546">
					<stop  offset="0" style="stop-color:#DDC9AF"/>
					<stop  offset="1" style="stop-color:#FFEFD8"/>
				</linearGradient>
				<path id="XMLID_85_" class="st17" d="M542.6,119.6c0,0,46.2-40.5,91.4,0l43,905h-99.9L542.6,119.6z"/>
				<path id="XMLID_331_" class="st8" d="M577.1,1024.6c0,0-0.7-14.1-1.9-38.9c-0.6-12.4-1.3-27.4-2.1-44.6
					c-0.8-17.2-1.6-36.7-2.6-57.9c-0.9-21.2-1.9-44.2-2.9-68.5c-1-24.3-2.2-49.9-3.2-76.4c-2.1-53-4.4-109.6-6.6-166.1
					c-2.1-56.6-4.1-113.1-6.1-166.2c-1-26.5-1.8-52.1-2.6-76.5c-0.8-24.3-1.6-47.3-2.3-68.5c-0.7-21.2-1.3-40.7-1.8-57.9
					c-0.5-17.2-1-32.3-1.3-44.6c-0.7-24.8-1.1-38.9-1.1-38.9s0.7,14.1,1.9,38.9c0.6,12.4,1.3,27.4,2.1,44.6
					c0.8,17.2,1.6,36.7,2.6,57.9c0.9,21.2,1.9,44.2,2.9,68.5c1,24.3,2.2,49.9,3.2,76.4c2.1,53,4.4,109.6,6.6,166.1
					c2.1,56.6,4.1,113.1,6.1,166.2c1,26.5,1.8,52.1,2.6,76.5c0.8,24.3,1.6,47.3,2.3,68.5c0.7,21.2,1.3,40.7,1.8,57.9
					c0.5,17.2,1,32.3,1.3,44.6C576.7,1010.4,577.1,1024.6,577.1,1024.6z"/>
				<g id="XMLID_388_">
					<path id="XMLID_393_" class="st7" d="M557.5,110c5.9,182.7,24.3,761.4,27.6,914.6h10l-30.3-917.9
						C562.2,107.7,559.7,108.8,557.5,110z"/>
					<path id="XMLID_397_" class="st7" d="M598.3,102.2c-7.8-1.1-15.2-0.5-22,1c5.5,166.3,20.5,602.8,37.8,921.5h26.2
						C619.1,761.4,604,299.2,598.3,102.2z"/>
				</g>
			</g>
			<path id="XMLID_92_" class="st16" d="M762.1,377.2c-1-0.2-1.6-1.4-1.3-2.4c3.6-0.5,7.1-1.2,10.7-1.6c0.7,0.4,1.5,1.4,1.5,2.2
				c0.1,0.8-0.3,1.7-1,2.2C769.2,377.4,765,377.8,762.1,377.2z"/>
			<polygon id="XMLID_363_" class="st18" points="385,243.7 380,248.9 554.3,474.8 			"/>
			<polygon id="XMLID_365_" class="st18" points="758.8,364.7 753.5,364.7 646.3,447.9 			"/>
			<g id="XMLID_342_">
				<path id="XMLID_50_" class="st3" d="M952.1,574.9c3.9,25.4,2.9,51.6-2.9,76.6c-6.8,0.6-13.4-0.5-19.1-4.2
					c-1.3-19.2-1.3-39.7,5.9-57.5c-4.4,17.6-4.6,36-1.6,53.9c1.3,0.2,3.3-1,4.6-0.8c2.4-23.7,2.2-48.2-1.4-71.7
					C942.5,571.5,947.5,573.5,952.1,574.9z"/>
				<path id="XMLID_329_" class="st11" d="M761.1,921.8c0,0-31.3,3.6-53.7-30.1C707.4,891.7,757.3,894.2,761.1,921.8z"/>
				<path id="XMLID_71_" class="st12" d="M717.5,890.1c-3.1,5.2-6.6,10.2-10.5,14.9c3.1,4.7,6.1,9,10.2,12.9
					c8.3-5.4,14.7-12.2,18.8-21.2L717.5,890.1z"/>
				<path id="XMLID_52_" class="st12" d="M909.7,727.9c3.1-13.4,6.3-26.8,9.4-40.1c-1.3-1.5-5.2-4.4-7.1-4.9
					c-0.3-4.2,0.7-9.6,2.2-13.5c2.2-6,0.3-13-3.4-18.3c-3.7-5.3-9-9.2-14.2-13c-4.8,10.9-6.3,22.1-7.7,33.9
					c-2.5,21.6,7.2,40.9,6.8,62.6c3.6-19.7,3.2-40.2-1.3-59.8c-0.6-2.7-1.3-5.4-0.9-8.1c0.7-4.8,4.7-8.3,8.4-11.4
					c5,8.5,6.3,18.6,7.3,28.3c1.5,14.7,2.1,30.7-5.8,43.2C905.8,728.1,907,728.4,909.7,727.9z"/>
				<path id="XMLID_83_" class="st11" d="M821.1,572.5c-16.8,11.2-27.9,30.3-29.3,50.4c-0.9,12.6,1.7,24.5,9.1,34.8
					c19.3-2.8,40.1-3.7,59.5-6.5c7-1,14.3-2.2,20.2-6.3c5.9-4.2,9.6-10.9,11.4-18c1.8-7,1.9-14.3,2-21.6L821.1,572.5z"/>
				<path id="XMLID_61_" class="st3" d="M806,652c0.6-25.2,3.9-49,9.5-73.6c-10.8,1.4-21.3,4.7-30.9,9.7c-2,23.4,0.9,47.7,8.3,70
					C796.7,656.3,802.2,653.8,806,652z"/>
				<g id="XMLID_54_">
					<path id="XMLID_301_" class="st19" d="M807,652l-2,0c0.6-24.3,3.6-47.8,9.5-73.8l2,0.4C810.6,604.5,807.6,627.8,807,652z"/>
				</g>
				<path id="XMLID_63_" class="st10" d="M761.1,921.8c14.6-25.4,26.9-52.8,36-80.2C840.3,789,872,728.2,891.3,663
					c-31.6-9.3-67.5-9.8-99.7-2.7c-11.2,48.4-16.9,98-17.1,147.7c-18.6,34.5-37.4,63-67.1,83.7C725.5,900.4,744.4,910.7,761.1,921.8
					z"/>
				<path id="XMLID_325_" class="st11" d="M793,853.3c1.4-3.9,2.8-7.8,4.1-11.7c1.9-2.3,3.8-4.7,5.7-7.1c-2.5-5.2-5.1-10.4-7.8-15.5
					c-3-6,1-16-4-24c-3.4-5.4-9.6-7.2-16-7.7c-0.2,6.9-0.4,13.8-0.4,20.7c-5.1,9.5-10.2,18.5-15.6,27
					C772.5,836,783.5,843.5,793,853.3z"/>
				<path id="XMLID_327_" class="st11" d="M815,669c24.8-3.4,49.4-1.8,73.9,1.8c0.8-2.6,1.6-5.2,2.4-7.8
					c-31.6-9.3-67.5-9.8-99.7-2.7c-6.3,27.3-10.9,55-13.7,82.8c8.4-15.7,19.3-30,31.1-43.1c10.1,34.9,13.5,71.2,13.6,107.7
					c1.6-2.3,3.1-4.6,4.7-6.9C828.5,756.6,826.4,712.1,815,669z"/>
				<path id="XMLID_51_" class="st12" d="M825.4,550.5c-4,9.4-9,18.4-15,26.7c25.8,29.4,59.8,50.8,97.9,60
					c2.9-11.1,6.1-25.4,6.9-36.8L825.4,550.5z"/>
				<path id="XMLID_62_" class="st3" d="M894.8,674.9c4.6-14.2,6-28.8,8.7-43.5c-41.5-4.5-84.5,6.2-119.1,29.5
					c1.7,1.1,3.6,2.2,5.3,3.3C824,658.7,862,663.2,894.8,674.9z"/>
				<g id="XMLID_304_">
					<path id="XMLID_305_" class="st19" d="M894.4,675.9c-33.8-12.1-72.1-16.9-104.7-11.6l-1-0.6c33-5.4,72.3-1.8,106.4,10.3
						L894.4,675.9z"/>
				</g>
				<path id="XMLID_278_" class="st12" d="M869.8,667.6c8.5,2,16.9,4.4,24.9,7.3c4.6-14.2,6-28.8,8.7-43.5
					c-25-2.7-50.5,0.1-74.4,7.8C844.6,646.1,858,656,869.8,667.6z"/>
				<path id="XMLID_32_" class="st4" d="M813.5,474.1c0,0,10.5,37.9,54,35.9s-5.5-46.5-5.5-46.5S827.5,468.7,813.5,474.1z"/>
				<path id="XMLID_30_" class="st20" d="M828.9,467.8c-11.4,6.1-20.5,16.5-25.1,28.6c17.6,8.4,36.1,15.7,55.2,19.9
					c9.1-9.7,15.4-20.9,18.6-33.8L828.9,467.8z"/>
				<path id="XMLID_31_" class="st4" d="M1032.4,548c0,0,39.3-1.8,46.5-48.9C1078.9,499.1,1051.3,485.4,1032.4,548z"/>
				<path id="XMLID_42_" class="st20" d="M1130,536c0.3,9.4-0.5,19-4,27.8c-3.5,8.8-9.8,16.7-18.3,20.7c-10.5,4.9-23.2,3.4-33.3-2.2
					c-10.1-5.6-17.7-15-23.2-25.2c-5.5-10.2-8.4-21.3-11.8-32.3c6-12.8,18.7-22.4,32.2-26.7c7.8,8.3,16.2,16.2,24.9,23.6
					c2.5-1.9,4.9-3.9,7.4-5.7C1112.7,520.5,1124.1,527.9,1130,536z"/>
				<g id="XMLID_229_">
					<path id="XMLID_237_" class="st21" d="M1096.5,521.5c-8.7-7.4-17.1-15.3-24.9-23.6c-5.6,1.8-11.1,4.6-16.1,8.1
						c8.2,9.1,18.1,17.3,26.4,25.2c-3.5,5.6-7.4,12.2-11,17.8c15.9-13.3,28.6-19.8,43.9-26.6c-3.7-2.5-7.5-4.8-11-6.6
						C1101.4,517.7,1098.9,519.7,1096.5,521.5z"/>
				</g>
				<g id="XMLID_202_">
					<path id="XMLID_29_" class="st6" d="M1032.4,548c10-19.8,27.1-38.2,46.5-48.9c-16.5-23.5-38-43.8-62.3-59.2
						c-27.2-17.3-57.8-40.3-90-40.1c-23,0.1-43.8,13.8-61,29.2c-17.1,15.4-32.4,33.3-52.1,45.2c19.2-1.9,38.5,1.9,55.5,10.9
						c-6.3,10.1-12.6,19.7-18.8,29.8c-6.9,11.2-21.2,16.6-30.3,26.1c1.1,15.7,7.4,30.1,17.1,42.5c0,0,51.1,26.9,78.9,30.7
						c5.8,0.8,13.4-5.4,17.5-9.1c9.3-8.5,18.4-17.7,27.2-26.6c17-17.1,36.5-27.7,56.4-40.4C1022.3,540.3,1028.1,544.2,1032.4,548z"
						/>
				</g>
				<g id="XMLID_220_">
					<path id="XMLID_222_" class="st22" d="M986.4,455c-12.7,11.8-24.7,24.2-37.2,36.1c-5.9,5.6-16.7,13.6-20.8,20.6
						c23-10.6,40.7-25.4,60.6-40.7c11.1-8.5,22.7-18.6,35.5-25.9c-2.6-1.8-5.2-3.6-7.9-5.3c-3-1.9-6-3.9-9.1-5.9
						C1000,441.1,993,448.8,986.4,455z"/>
				</g>
				<g id="XMLID_173_">
					<path id="XMLID_196_" class="st5" d="M957.6,458c13.9-11.3,29.7-19.1,45.8-26.7c-23.7-15.5-49.7-31.7-76.8-31.6
						c-5.2,0-10.3,0.8-15.2,2c-22.9,16.3-36.9,51.6-44.4,82.2c0,0,0,0,0,0c0.7,0.3,1.3,0.7,2,1c-6.3,10.1-12.6,19.7-18.8,29.8
						c-6.9,11.2-21.2,16.6-30.3,26.1c1.1,15.7,7.4,30.1,17.1,42.5c0,0,4,2.1,10.3,5.2c15.7-17.2,30.2-35.7,44.7-52.5
						C909.4,516,950.7,463.6,957.6,458z"/>
					<path id="XMLID_206_" class="st4" d="M925.5,423.5c-3.9,1.6-7.6,3.9-12,5c6.5,2.5,19.7,3.2,26.5,1c3.9,5.8,3.3,13.4,9,17.8
						c-0.2-6.2-1.3-11.9-2.1-18.1c-0.3-2.7,0.4-11.2-1.5-13.4C942.7,412.6,929.8,421.7,925.5,423.5z"/>
				</g>
				<polygon id="XMLID_159_" class="st22" points="917.5,476.1 915.2,492.1 897.7,499.8 867,488.5 898.3,498.1 911.7,492.1 				"/>
				<path id="XMLID_41_" class="st22" d="M900.5,535.1c16.4-1,32.6-8.7,42.7-21.6c0.9,7.5,4.5,14.6,9.9,19.9
					c-2.9-9.4-4.9-19.1-5.8-28.8c9.3-14.5,19.9-27.9,32.2-40C952.5,488.1,925.3,509.2,900.5,535.1z"/>
				<path id="XMLID_201_" class="st22" d="M998.4,513.6L972,527.7c0,0-25.2-10.3-32.5-20.4l13.2-9.2L998.4,513.6z"/>
				<g id="XMLID_188_">
					<path id="XMLID_191_" class="st5" d="M1007.6,536.1c12.6-12,26.1-23,40.4-32.8c-19.3,8.4-37.2,19.7-56.5,27.9
						s-40.8,13.5-61.3,8.9c-31.6,1.7-63.6-3-94.2-11.8c-5.6,4-11.5,7.7-16.1,12.5c1.1,15.7,7.4,30.1,17.1,42.5
						c0,0,51.1,26.9,78.9,30.7c5.8,0.8,13.4-5.4,17.5-9.1c9.3-8.5,18.4-17.7,27.2-26.6c17-17.1,36.5-27.7,56.4-40.4
						c5.3,2.3,11.1,6.2,15.4,10c4-7.8,9.1-15.5,15-22.5C1034.4,529.5,1021.2,533,1007.6,536.1z"/>
				</g>
				<path id="XMLID_27_" class="st3" d="M938.6,403.1c-24.5,20.6-45.9,44.9-63.3,71.7c8.6-30.9,25.2-57.9,50.2-78
					C929.6,397.6,935.3,400.3,938.6,403.1z"/>
				<path id="XMLID_28_" class="st3" d="M892.5,531.5c38.6-33.6,75.8-68.8,111.5-105.5c7,3.9,12.9,7.8,18.3,13.8
					c-25,13.7-44.4,34.7-65.1,54.2c-20.8,19.6-44.3,38.2-72.3,43.7C887.1,535.5,890.1,533.5,892.5,531.5z"/>
				<path id="XMLID_33_" class="st20" d="M887,528.7c-9.2-17.5-19.6-36-37.3-44.7c-11.6-5.7-25.7-6.5-37.8-1.9
					c-6.9,9.5-12.1,20.6-12.9,32.3c-0.7,11.7,3.5,24.1,12.8,31.4c7.8,6.1,18.1,8.1,28,8.7c9.9,0.7,20,0.3,29.6,2.6
					c6.2,1.5,11.6-3.4,14.8-8.9S886,535,887,528.7z"/>
				<g id="XMLID_240_">
					<path id="XMLID_250_" class="st20" d="M850.5,491.7c0.4,0,0.8,0,1.2,0C851.3,491.7,850.9,491.7,850.5,491.7z"/>
					<path id="XMLID_252_" class="st21" d="M816.1,495.7c-3.1,2-6.5,4.7-6.5,8.4c11.7-8.6,26.4-13,40.9-12.4c0.4,0,0.8,0,1.2,0
						c-0.4,0-0.8,0-1.2,0c-5.6,0-12.7,2.9-16.8,6.4c11.6,1.1,22.3,7.5,30.5,15.9s14.1,18.6,19.5,29c0.5,1,1.1,2.1,1.6,3.2
						c1.9-5.3,0.8-11.9,1.8-17.4c-9.2-17.5-19.6-36-37.3-44.7c-9-4.4-19.5-5.9-29.4-4.1c6.8,1.4,13.5,3.5,19.8,6.4
						C831.4,485.8,823.4,490.9,816.1,495.7z"/>
				</g>
				<path id="XMLID_34_" class="st23" d="M866,558c0.2-14,7.8-27.8,19.6-35.3c-3.7-3.1-8.6-3.9-12.9-1.8c-5.6,2.6-9.7,7.9-11.8,13.7
					c-2.1,5.8-2.2,12.2-1.3,18.3c0.2,1.3,0.4,2.6,1.2,3.7C861.5,557.6,864.7,558.3,866,558z"/>
				<path id="XMLID_35_" class="st21" d="M864.5,565.6c-1.4-9.4,0.3-19.3,4.8-27.7s11.8-15.3,20.4-19.3c3.1,2.9,6.5,5.7,9.6,8.6
					c9.8,0.9,22.6-4.2,31.1,2.4c7.7,6,16.9,10.5,24.7,16.5c1.5,1.2,3.2,2.4,3.8,4.3c1.1,2.9-0.6,6-2.3,8.6c-1.2,2-2.7,4.1-4.9,4.8
					c-2.5,0.8-5.2-0.5-7.5-1.7c-5.5-2.9-10.9-5.8-16.4-8.8c5,3.3,9,7,14,10.3c1.8,1.2,3.7,2.4,4.7,4.3c2.3,4.1-0.6,9.7-5,11.5
					s-9.4,0.5-13.6-1.7c-4.2-2.2-7.8-5.4-11.8-7.8c2.5,4.5,5.4,7.9,9.5,10.9c2,1.4,4.3,2.9,4.7,5.4c0.4,2.5-1.8,5-4.2,5.6
					c-2.5,0.7-5.1,0-7.5-1c-5.2-2.1-9.9-5.4-13.6-9.7c0.7,2.5,2,4,3.7,5.9c1.8,1.8,3.6,3.7,4.5,6.1c0.9,2.4,0.5,5.5-1.6,7
					c-2.8,2-6.9,0.1-9.1-2.6s-3.6-6.1-6.3-8.2c-7.4-5.7-15.2-11.5-19.1-20L864.5,565.6z"/>
				<g id="XMLID_225_">
					<path id="XMLID_253_" class="st20" d="M893.5,583.5c0.2-4.7,4.5-5.1,6.8-8c2.2-2.9,1.7-6.3,4.6-9.2c1.2-1.2,3.6-1.8,4.6-2.9
						c1.8-2.2,1-2.8,1.7-5.4c1.5-5,4.7-6.2,7.5-9.9c2.2-2.8,1.3-6.1,2.6-9.4c1.2-3.2,4.3-7.1,6.7-9.1c-6,4.4-8.1,9.2-10.8,15.4
						c0.2-6.5,0-8.4,3.2-14.2c-4.4-1.5-15.2-0.8-19.8-0.3c-11.7,1.2-17.9,20.8-20.5,30.5c1.7-11.8,6.3-22.3,12.9-32
						c-10.6-0.1-19.8,22-18.8,30.9c-3.3-0.3-6.7-1.4-10-3c-0.1,2.9,0,5.7,0.4,8.6l8.1,2.2c3.5,0.4,7,0.9,10.3,1.8
						C884.5,574.4,889.6,580.6,893.5,583.5z"/>
				</g>
				<path id="XMLID_38_" class="st6" d="M961.6,489.8c13.9,6.2,25.4,13.8,36.9,23.8c-8.3,4-16.6,7.8-25,11.8
					c-13.5-3.8-24.9-11.7-33.9-22.4L961.6,489.8z"/>
				<path id="XMLID_40_" class="st5" d="M1051,489.7c-14.8,0.5-29.3,6.5-40.1,16.7C1024.2,500.3,1037.2,494.6,1051,489.7z"/>
				<path id="XMLID_48_" class="st20" d="M1096.1,554.2c2,7,5.5,13.9,11.4,18.1c5.9,4.2,14.6,5,20.3,0.5c3.2-2.6,5.1-6.4,6.5-10.3
					c2.7-7.9,3.5-16.4,3.1-24.8c-0.3-6.3-1.2-12.6-3.7-18.3c-2.5-5.7-6.9-10.8-12.6-13.4C1094.1,494,1091.7,538.6,1096.1,554.2z"/>
				<path id="XMLID_247_" class="st21" d="M1098.4,515.3c-5.1,11.9-4.8,30-2.3,38.9c2,7,5.5,13.9,11.4,18.1
					c3.2,2.3,7.3,3.6,11.3,3.5c-3.9-1.3-7.5-3.6-10.8-6.8C1095,555.2,1095.2,534.8,1098.4,515.3z"/>
				<path id="XMLID_43_" class="st21" d="M1138.1,556.3c-5,6.9-27.1,1.2-30.7-3.2c-4.3-5.4-2.8-10.9-3.4-17.3
					c-0.5-4.8-2.4-9.3-2.8-14.3c-0.4-4.8-0.6-10.4,1.4-14.8c2.3-5,6.1-9.1,7.4-14.7c0.7-2.8,1.5-5.9,1.3-9
					c-0.2-4.8-1.3-9.6-1.3-14.5c-0.1-7.5,2.6-19.4,11.7-20.5c3.3-0.4,6,0.9,6.9,4c1,3.6,0,9,0,12.7c0,3.4,0.2,6.9,0.7,10.2
					c0.9,6.3,0.7,12,5.4,16.7c2.2,2.2,5.5,4.1,7.2,6.8c5.4,8.8,1.6,23.5-0.3,32.7C1140.1,539.1,1143.2,549.1,1138.1,556.3z"/>
				<path id="XMLID_47_" class="st21" d="M1143,542c-0.1,10.6-3.5,16.9-14.7,17.4c-8,0.3-24.2-9.2-14.3-17.4
					c4.1-3.3,8.6,0.6,13.4,0.9C1132.7,543.3,1137.6,541.8,1143,542z"/>
				<path id="XMLID_263_" class="st20" d="M1118,548c-1.9-1.3-2.6-3.8-2.6-6.8c-0.4,0.2-0.9,0.5-1.3,0.8c-10,8.1,6.2,17.6,14.3,17.4
					c7.1-0.3,11.1-3,13-7.6C1133.6,553.1,1125.7,552.5,1118,548z"/>
				<path id="XMLID_49_" class="st24" d="M1096.5,521.5c0,0-23.1,9.5-26.1,28.5C1070.3,550,1075.9,538.7,1096.5,521.5z"/>
				<path id="XMLID_212_" class="st23" d="M843.6,593.3c-5.5-1.5-11.5-2.5-16.9-0.8c-7.1,2.3-12.3,9.3-13.1,16.7
					c-0.8,7.5,2.5,15,8,20.2c10.6,10.1,26.9,10.3,40.5,15.8c3.1,1.2,6.6-0.1,8.1-3c3.5-6.5,9.3-17.4,12.8-24.1
					c1.7-3.1,0.5-7-2.6-8.7C868.6,603,856.5,596.9,843.6,593.3z M843.1,626.7c-6,3.1-13.8,1.8-18.6-2.8
					c-10.9-10.7-1.2-29.7,13.9-27.2c6.6,1.1,12.2,6.7,13.2,13.4C852.7,616.5,849,623.6,843.1,626.7z"/>
				<path id="XMLID_53_" class="st3" d="M917.5,649.1c-14.5-18.3-30.6-36.6-54.4-41.7l-8.6,24.6c19.6,7.8,34.2,22,49,36.3
					C908.7,660.5,911.5,656.3,917.5,649.1z"/>
				<g id="XMLID_56_">
					<path id="XMLID_58_" class="st8" d="M758.1,601.3c-1.8,0-3.5-0.7-4.8-2c-1.3-1.3-2-3.2-1.9-5c0.4-8.2,1.9-16.3,4.6-24.2
						c0.7-2,2.2-3.5,4.2-4.2c2-0.7,4.2-0.4,5.9,0.8l8.1,5.5c2,1.4,3.1,3.7,2.9,6.1l0,0c-0.5,6-1.5,11.9-2.9,17.7
						c-0.7,2.9-3.4,5-6.4,5.1c-1.8,0-3.7,0.1-5.5,0.1l-4,0.1C758.2,601.3,758.2,601.3,758.1,601.3z M762.4,569.5
						c-0.3,0-0.6,0-0.9,0.1c-0.8,0.3-1.4,0.9-1.7,1.7c-2.6,7.5-4.1,15.3-4.4,23.1c0,0.8,0.2,1.5,0.8,2.1c0.5,0.5,1.2,0.8,2,0.8
						l4-0.1c1.9,0,3.7-0.1,5.6-0.1c1.2,0,2.3-0.9,2.6-2.1c1.4-5.6,2.3-11.3,2.8-17c0.1-1-0.4-2-1.2-2.5l-8-5.5
						C763.5,569.6,763,569.5,762.4,569.5z"/>
				</g>
				<path id="XMLID_55_" class="st23" d="M824.2,605.3c-18.7-5.6-36.4-14.2-52.3-25.6c-1,3.7-2.2,7.5-2.2,11.3
					c14.7,14,33.4,23,53.2,27.2L824.2,605.3z"/>
				<path id="XMLID_223_" class="st8" d="M779.8,585l-2.9,12.2c0.9,0.7,1.8,1.4,2.7,2l3.2-12.4C781.8,586.2,780.8,585.6,779.8,585z"
					/>
				<path id="XMLID_321_" class="st8" d="M788.9,590.4l-3.2,13c5.8,3.7,12,6.7,18.4,9.2l2.3-13.7
					C800.4,596.3,794.6,593.5,788.9,590.4z"/>
				<path id="XMLID_286_" class="st8" d="M810.7,600.6l-2.8,13.4c1.6,0.6,3.2,1.1,4.8,1.6l2.3-13.3
					C813.6,601.7,812.1,601.2,810.7,600.6z"/>
				<path id="XMLID_57_" class="st3" d="M557,490c0,0,127.7,67.1,201.8,84.4l-3.3,17.2c0,0-116.6-26.7-198.6-75.3V490z"/>
				<g id="XMLID_36_">
					<path id="XMLID_215_" class="st19" d="M758.5,575.8C685,558.7,557.6,492,556.3,491.3l1.4-2.7c1.3,0.7,128.4,67.2,201.5,84.2
						L758.5,575.8z"/>
				</g>
				<path id="XMLID_64_" class="st3" d="M756.1,854.3c7.8-5.9,15.6-11.9,21.7-19.5c6-7.7,10.1-17.3,9.2-27
					c-0.9-9.3-7.6-16.8-13.8-23.8c-7.1,11.8-11,25.6-11.1,39.3c-5.5,6.9-9.7,14.8-12.4,23.2C748.5,850.2,752.1,853.3,756.1,854.3z"
					/>
				<g id="XMLID_315_">
					<path id="XMLID_328_" class="st19" d="M756.2,854.8l-0.2-0.1c-2.8-0.6-5.1-2.2-6.2-4.2c-0.8-1.4-1-2.9-0.5-4.4l1,0.3
						c-0.4,1.3-0.3,2.5,0.4,3.6c0.9,1.7,3,3,5.4,3.7c7.6-5.8,15.4-11.7,21.4-19.3c6.7-8.5,9.9-18,9.1-26.7
						c-0.9-9-7.2-16.2-13.3-23.2l-0.4-0.4l0.8-0.7l0.4,0.4c6.2,7.1,12.6,14.4,13.5,23.7c0.9,8.9-2.4,18.7-9.3,27.4
						c-6.1,7.8-14.1,13.8-21.8,19.6L756.2,854.8z"/>
				</g>
				<path id="XMLID_65_" class="st12" d="M793.5,853.5c3.4-5,6.4-9.9,8.5-15.6c-6.3-9.3-15.3-16.5-25.1-22c-3.4,3.6-5.9,8.1-7,13
					C778.3,836.5,786.9,844.4,793.5,853.5z"/>
				<g id="XMLID_308_">
					<path id="XMLID_312_" class="st19" d="M801.2,838.5c-5.7-8.4-14-15.7-24.7-21.6l1-1.7c11,6.1,19.6,13.6,25.4,22.3L801.2,838.5z
						"/>
				</g>
				<path id="XMLID_66_" class="st5" d="M905.2,713.3c1.4-28.1-0.2-53.6-6.2-83.9c-1.2-1.6-3.3-3.1-5.1-4
					c3.7,28.7,4.9,57.7,3.6,86.7C899.2,712.4,903.4,712.9,905.2,713.3z"/>
				<path id="XMLID_67_" class="st6" d="M945.6,819.7c-7.7,6.2-18.7,6.8-28.4,4.8c-18.9-3.9-35.8-16.9-44.1-34.3
					c8.6-27.8,15.3-56.7,21.5-85.2c-0.7-0.8-0.3-2.8,0.1-3.8c17.3,4.2,33.1,14,44.5,27.6c-0.6,0.7-1.7,1.5-2.2,2.2
					C941.9,760.3,943.9,790.1,945.6,819.7z"/>
				<g id="XMLID_336_">
					<path id="XMLID_339_" class="st22" d="M888.7,731.5c-4.6,19.7-9.6,39.5-15.5,58.7c6.2,13.1,17.3,23.7,30.4,29.8
						c9.4-23,15.2-47.6,17.5-72.1C909.8,743.5,898.9,738,888.7,731.5z"/>
				</g>
				<path id="XMLID_68_" class="st23" d="M913,761.3c-14.1-4-25.7-12.2-34.4-24c5.1-7,9.8-15.3,13.6-23.1
					c10.6,6.9,21.2,13.8,31.8,20.7C922.3,744.9,919,753.1,913,761.3z"/>
				<path id="XMLID_70_" class="st5" d="M924.1,734.9c0,0,1.7,48.1-6.5,64.4l-14,19.7c0,0,7.2-42.8,14-64.9S924.1,734.9,924.1,734.9
					z"/>
				<path id="XMLID_72_" class="st5" d="M937,731c0,0-8-12.9-39.3-25.6C897.7,705.4,936.8,729.5,937,731z"/>
				<path id="XMLID_76_" class="st19" d="M707.7,978.2c-2.5-1.1-4-3.6-4.7-6.2s-0.5-5.3-0.3-8c0.7-10.8,2-21.6,3.7-32.3
					c1.8-0.7,3.2-0.9,5-0.1c-1.4,12.4-2.3,25-2.4,37.4c0,2,2,3.9,3,5.7C712,974.7,708.3,977.3,707.7,978.2z"/>
				<path id="XMLID_73_" class="st3" d="M708.9,931.5c5.8-3.3,9.9-8.9,12.2-15.2c-3.1-5.7-8.5-11-13.8-14.8c-5.1,1.1-9.8,4-13.2,7.9
					c-4.2,0.5-9.6,1-13.8,1.5c-3.7-3.3-10.1-5.7-15-4.9s-9.4,3.8-12,8.1c0.1,6.5,4.1,12.2,9.1,16.2c5,4.1,11.2,6.4,17.4,8.2
					s12.6,3.2,18.6,5.6C702.5,940.8,706.6,936.2,708.9,931.5z"/>
				<path id="XMLID_75_" class="st12" d="M703.4,933.1c2.1,1.9,5.4,2.2,7.9,1c3.2-1.4,5.4-5.4,3.9-8.6
					C711.6,917.4,696.1,926.3,703.4,933.1z"/>
				<path id="XMLID_74_" class="st19" d="M712,924c-0.2,1.8-1.4,3.5-3,4.3c-1.6,0.8-4.8,1.5-6.4,0.6c-2.5-8.8-9.2-16.4-17.6-19.9
					c1.9-2.9,4.5-5.2,8-5.3C701.7,903.4,713.1,915.4,712,924z"/>
				<path id="XMLID_78_" class="st19" d="M680.3,910.9c0,0,7,5.1,9.7,15.1L680.3,910.9z"/>
				<g id="XMLID_350_">
					<path id="XMLID_353_" class="st5" d="M655.7,911.1c-0.9,0.9-1.7,2-2.4,3.1c0.1,6.5,4.1,12.2,9.1,16.2c5,4.1,11.2,6.4,17.4,8.2
						s12.6,3.2,18.6,5.6c0.5-0.4,0.9-0.8,1.3-1.2c-8.3-3.9-16.7-7.7-25.3-10.6C669.2,924.6,662.8,917.4,655.7,911.1z"/>
				</g>
				<path id="XMLID_39_" class="st5" d="M866.7,483.7c-2.4-9.7-5.5-19.5-8.7-29c3.9,4.6,5.3,11,7,16.7
					C866.2,475.3,865.4,480.1,866.7,483.7z"/>
				<path id="XMLID_151_" class="st5" d="M867.4,483.3c0-13-0.9-26.1-2.8-39c4.5,5.1,6.3,12.6,6.2,19.4
					C870.8,470.6,869.1,476.7,867.4,483.3z"/>
				<g id="XMLID_199_">
					<path id="XMLID_204_" class="st6" d="M867,488.5l10.6-15.8l39.8,3.4c-12.5-2.5-27.7-4.2-40.5-5C872.8,477,867,488.5,867,488.5z
						"/>
				</g>
				<path id="XMLID_37_" class="st23" d="M961.6,489.8l36.9,23.8C998.4,513.6,979.7,494.1,961.6,489.8z"/>
				<path id="XMLID_26_" class="st6" d="M994.3,393.5c10.7,17.2,14.6,39.1,11.4,59.1c-4.5-6.5-9.8-13.6-17.6-15
					c-7.2-1.3-14.2,2.7-20.5,6.5c-6.3,3.7-13.5,7.5-20.6,5.6c-2.9-7.3-5.2-15.8-5.7-23.7c-9.5,4.1-20.3,3-29.4-2
					c14.7-1.8,25.4-12,38.2-19.3C963,397.3,979.6,392.7,994.3,393.5z"/>
				<path id="XMLID_234_" class="st22" d="M950.2,404.7c-12.8,7.4-23.5,17.5-38.2,19.3c8.7,4.8,19,6,28.2,2.5
					c1.9-8.3,5.8-15.8,11.1-22.4C950.9,404.3,950.5,404.5,950.2,404.7z"/>
				<path id="XMLID_239_" class="st22" d="M994.3,393.5c-14.4-0.8-30.4,3.6-43.1,10.6c-5.3,6.6-9.2,14-11.1,22.4
					c0.4-0.2,0.8-0.3,1.2-0.5c0.5,7.9,2.8,16.3,5.7,23.7c7.1,1.9,14.3-1.8,20.6-5.6c5.3-3.1,11.1-6.5,17.1-6.7
					c7.4-9.1,13.2-19,16.2-30.4C999.2,402.3,996.9,397.7,994.3,393.5z"/>
				<g id="XMLID_203_">
					<path id="XMLID_25_" class="st25" d="M940.7,411c1.6,12,4.5,24.8,8.3,36.3c11.9-7.1,22.7-16.4,33.3-25.3
						c9.1-7.6,13.9-19.2,12.9-31c-0.6-7-1.1-13.9-1.2-21L940.7,411z"/>
					<path id="XMLID_181_" class="st26" d="M995.2,389.8c-0.5-6.6-1.1-13.1-1.1-19.8l-53.4,41c1,7.2,2.4,14.4,4.2,21.5
						C965.9,424.3,983.9,409.9,995.2,389.8z"/>
					<path id="XMLID_17_" class="st25" d="M921,398.7c-0.7,3.6-1.5,7.5,0.1,10.9c1.1,2.3,3.2,4.1,5.3,5.5
						c13.3,8.7,31.6,7.4,45.3-0.7s23.2-22,28.9-36.8c5.6-14.9,7.8-30.8,9.7-46.6c0.5-4.2,0.8-9.1-2.2-12.1c-3.2-3.2-8.3-2.7-12.7-2
						c-12.7,2-25.5,4-38.2,6.1c-7.6,1.2-15.5,2.5-22.2,6.3c-7.1,4-12.7,11.8-13.2,20.1c-0.3,4.8,1.1,9.8,1.4,14.5
						c0.4,5.5,0.4,11,0.2,16.6C922.8,386.6,922.1,392.7,921,398.7z"/>
					<g id="XMLID_133_">
						<path id="XMLID_149_" class="st27" d="M989.2,354.5c-17,14.7-41,22.5-63.3,19.8c-1.3,10.5-3.2,20.9-5.8,31.2
							c0,1.4,0.3,2.7,0.9,4c1.1,2.3,3.2,4.1,5.3,5.5c13.3,8.7,31.6,7.4,45.3-0.7c4.6-2.7,8.8-6.1,12.5-10
							C989.3,388.4,991,371.1,989.2,354.5z"/>
					</g>
					<path id="XMLID_10_" class="st28" d="M999,330.8c-0.2,6.8,1.6,17.3-0.5,23.8l8.3-4.5c-0.2-4.4,1.5-8.8,2-13.2
						c0.5-4.7,1-9.7,0.7-14.5C1006,322.2,999.1,327.5,999,330.8z"/>
					<linearGradient id="XMLID_127_" gradientUnits="userSpaceOnUse" x1="967.5032" y1="312" x2="967.5032" y2="355">
						<stop  offset="0" style="stop-color:#874366"/>
						<stop  offset="1" style="stop-color:#AF7361"/>
					</linearGradient>
					<path id="XMLID_12_" class="st29" d="M1019.8,309.9c2.3,1.4,2.8,4.7,1.9,7.3c-0.9,2.6-2.9,4.6-4.8,6.5
						c-5.7,5.7-11.4,11.3-17.1,17c-5.9,5.8-11.8,11.7-18.8,16c-7,4.3-15.5,7.5-23.6,6.4c-1.6-2.7-3.3-5.4-5.6-7.5s-5.4-3.6-8.5-3.3
						c-4.3,0.5-8.5,4.3-11.2,7.7c-7.8-2.7-15.5-8.9-17.3-17c-1.6-7.3-2.2-14.9-1.7-22.4C947.9,317.6,985.4,315.9,1019.8,309.9z"/>
					<path id="XMLID_20_" class="st28" d="M940.3,329.7c-5.8-1.3-12.3-2.4-17.7,1.7c-4-4.8,4.4-7.2,7.3-7.3
						C934.8,323.8,939.6,324.6,940.3,329.7z"/>
					<path id="XMLID_21_" class="st28" d="M981.3,322.7c-4.1-9.6-19.5-1.8-24,3c4.2,4.5,9.2-3.4,14.2-3.6
						C972.9,322,983.7,328.3,981.3,322.7z"/>
					<path id="XMLID_14_" class="st28" d="M930.7,346.2c0,0.5,0,1.2,0.4,1.4c0.4,0.2,0.9,0,1.1-0.3s0.4-0.7,0.5-1.2
						c0.6-2.7,3-13.2-2-13c-2.6,0.1-1.8,2.7-1.2,4.4C930.4,340.4,930.9,343.3,930.7,346.2z"/>
					<path id="XMLID_15_" class="st25" d="M1017.1,315.7c1.8-2.2,4.8-4.5,7.3-3.2c1.8,1,2.3,3.4,2.4,5.5c0.5,12-4.4,24.2-13,32.6
						c-1.3,1.2-2.7,2.4-4.4,3c-1.7,0.5-3.8,0.2-5-1.2c-0.9-1.1-1.1-2.6-1.1-4C1002.7,336.4,1009.7,324.7,1017.1,315.7z"/>
					<path id="XMLID_16_" class="st28" d="M967.8,343.1c0,0.5,0,1.2,0.4,1.4c0.4,0.2,0.9,0,1.1-0.3c0.3-0.3,0.4-0.7,0.5-1.2
						c0.6-2.7,3-13.2-2-13c-2.6,0.1-1.8,2.7-1.2,4.4C967.5,337.2,968,340.2,967.8,343.1z"/>
					<g id="XMLID_9_">
						<linearGradient id="XMLID_128_" gradientUnits="userSpaceOnUse" x1="920.1078" y1="336.5934" x2="965.5535" y2="336.5934">
							<stop  offset="0" style="stop-color:#C88691;stop-opacity:0"/>
							<stop  offset="1" style="stop-color:#CE8C95"/>
						</linearGradient>
						<path id="XMLID_120_" class="st30" d="M955.4,317.3l-35.3,35.3c1.5,1.6,3.3,3,5.2,4.2l40.3-40.3
							C962.2,316.7,958.8,317,955.4,317.3z"/>
						<linearGradient id="XMLID_129_" gradientUnits="userSpaceOnUse" x1="948.1122" y1="337.363" x2="1009.8132" y2="337.363">
							<stop  offset="0" style="stop-color:#C88691;stop-opacity:0"/>
							<stop  offset="1" style="stop-color:#CE8C95"/>
						</linearGradient>
						<path id="XMLID_158_" class="st31" d="M986.9,314.4l-38.8,38.8c1.3,0.6,2.5,1.4,3.6,2.4c2.3,2.1,3.9,4.8,5.6,7.5
							c0.3,0,0.6,0.1,0.9,0.1l51.7-51.7C1002.3,312.6,994.6,313.6,986.9,314.4z"/>
					</g>
					<g id="XMLID_113_">
						<g id="XMLID_23_">
							<path id="XMLID_5_" class="st20" d="M1053.2,306.6c-39.3,11-72.7,15.4-120.2,19.6c-17.7-1.9-34.7-3.6-51.9-8
								c9.1-4.9,18.3-9.8,27.4-14.7c-4.1-22.1,4.3-45.7,22.6-58.8c18.3-13.1,44.3-14.4,63.8-3.3c19.5,11.1,31.7,34.1,29.8,56.5
								L1053.2,306.6z"/>
							<g id="XMLID_22_">
								<path id="XMLID_153_" class="st21" d="M997.4,301.9l11.6,14.9c14.6-2.7,28.9-5.9,44.1-10.2l-28.5-8.6
									c1.3-15.1-3.8-30.5-13.3-42.3c0.5,4,0.1,7.9-1.4,11.3c-12,26-46,30-68,46c-4.2,3.1-7.6,7.7-10.6,13c0.5,0.1,1,0.1,1.6,0.2
									c18.1-1.6,34.2-3.2,49.4-5.3c-3.5-5.5-9.7-14.9-9.7-14.9h6l9.1,14.1c2.9-0.4,5.8-0.8,8.6-1.3c-4.5-6.9-10.1-15.4-10.1-15.4
									L997.4,301.9z"/>
							</g>
							<path id="XMLID_6_" class="st20" d="M930.3,243.8c-1.9,16.6-2.6,34-1,50.6c-6.6-13.3-10.1-27.2-10.2-42.1L930.3,243.8z"/>
							<path id="XMLID_7_" class="st20" d="M968.5,232c-2.9,20.3-6.3,42.1-9.2,62.4c-6.1-19.7-10.7-40-13.7-60.4
								C952.3,232,961.6,231.7,968.5,232z"/>
							<path id="XMLID_8_" class="st20" d="M980.9,286.1c-2.1-17.5-1.1-34.3,2.8-51.5l13.8,7C997.5,242,986,271.6,980.9,286.1z"/>
							<g id="XMLID_142_">
								<path id="XMLID_143_" class="st21" d="M930.3,243.8l-3.3,2.5c-0.6,10.4-1.4,32.3,2.3,48.1
									C927.7,277.7,928.4,260.4,930.3,243.8z"/>
								<path id="XMLID_145_" class="st21" d="M968.5,232c-1,0-2-0.1-3-0.1c0,0-5.6,42.3-6.2,62.5C962.2,274,965.6,252.3,968.5,232z
									"/>
								<path id="XMLID_147_" class="st21" d="M994.6,240.1c-2.8,7.5-9.2,25.9-13.7,46c5.1-14.5,16.5-44,16.5-44.5L994.6,240.1z"/>
							</g>
							<polygon id="XMLID_13_" class="st24" points="1024.7,298 938.5,310.3 920.7,308.2 938.5,312.7 1028.8,299.2 							"/>
						</g>
						<path id="XMLID_117_" class="st8" d="M881.1,318.2l3.2,0.7l3.2,0.7c2.1,0.4,4.3,0.8,6.5,1.2c2.2,0.4,4.3,0.7,6.5,1l6.5,0.9
							c4.3,0.6,8.7,1,13,1.5l13.1,1.3l-0.2,0l15.9-1.5c5.3-0.5,10.6-1.1,15.8-1.7c2.6-0.3,5.3-0.6,7.9-0.9c2.6-0.3,5.3-0.6,7.9-0.9
							c1.3-0.2,2.6-0.3,3.9-0.5l3.9-0.6l7.9-1.1l0.1,0l0,0l-0.1,0l7.1-1.3l7.2-1.2l7.2-1.2c1.2-0.2,2.4-0.4,3.6-0.6l3.6-0.7l7.1-1.5
							c2.4-0.5,4.7-1,7.1-1.6c4.7-1.1,9.4-2.2,14.1-3.4c-2.3,0.7-4.6,1.4-7,2.1c-2.3,0.7-4.7,1.3-7,2c-2.3,0.6-4.7,1.2-7,1.9
							c-1.2,0.3-2.4,0.6-3.5,0.9l-3.5,0.8l-3.5,0.8c-1.2,0.3-2.4,0.5-3.6,0.7l-7.1,1.4l-7.2,1.4l-7.2,1.3l-0.1,0l0,0l0.1,0l-7.9,1.2
							l-3.9,0.6c-1.3,0.2-2.6,0.4-4,0.6c-2.6,0.4-5.3,0.7-7.9,1c-2.6,0.3-5.3,0.7-7.9,0.9c-5.3,0.5-10.6,1.1-15.9,1.6l-15.9,1.4
							l-0.1,0l-0.1,0c-4.4-0.5-8.7-1-13.1-1.5c-4.3-0.5-8.7-1.1-13-1.8c-2.2-0.3-4.3-0.7-6.5-1.1c-2.2-0.4-4.3-0.8-6.5-1.3
							c-2.1-0.5-4.3-0.9-6.4-1.5C885.3,319.4,883.2,318.8,881.1,318.2z"/>
						<path id="XMLID_114_" class="st8" d="M919.2,252.3c0.2,1.3,0.3,2.6,0.4,4l0,0.1l-0.1,0.1l-1.6,2.6l-1.5,2.7l-1.4,2.7l-1.3,2.8
							l-1.1,2.8l-1,2.9l-0.9,2.9l-0.8,3l-0.6,3l-0.5,3l-0.4,3l-0.2,3.1l-0.1,3.1l0,3.1l0.1,3.1c0.1,1,0.2,2.1,0.2,3.1
							c-0.3-1-0.5-2-0.7-3c-0.2-1-0.4-2.1-0.5-3.1c-0.1-1-0.2-2.1-0.3-3.1c-0.1-1-0.1-2.1-0.1-3.1l0-3.2l0.2-3.1
							c0.1-1,0.3-2.1,0.4-3.1l0.6-3.1c0.2-1,0.5-2,0.8-3.1l1-3c0.4-1,0.7-2,1.1-3l1.3-2.9c0.5-0.9,1-1.9,1.5-2.8l1.6-2.7l1.8-2.6
							l2-2.4l-0.1,0.2C919,254.9,919.1,253.6,919.2,252.3z"/>
					</g>
					<linearGradient id="XMLID_200_" gradientUnits="userSpaceOnUse" x1="926.6873" y1="360.7402" x2="950.7281" y2="360.7402">
						<stop  offset="0" style="stop-color:#E15D74"/>
						<stop  offset="1" style="stop-color:#E1A374"/>
					</linearGradient>
					<path id="XMLID_18_" class="st32" d="M928.5,362.3c-1,1-2.1,2.3-1.8,3.7c0.4,1.5,2.2,2.2,3.7,2.4c4,0.7,8.2,0.8,12.2,0.2
						c2.2-0.3,4.5-0.9,6.1-2.5c1.3-1.4,1.9-3.3,1.9-5.2c0.1-2.3-0.5-4.8-2.1-6.5C942.5,348.2,932.6,358.3,928.5,362.3z"/>
					<path id="XMLID_115_" class="st1" d="M941.1,368.7c-1,0.1-2.4,0.1-4.1,0c-1.7-0.1-3.7-0.3-5.8-0.6c-1.1-0.2-2.1-0.4-3-0.9
						c-0.4-0.3-0.8-0.6-0.9-1c-0.2-0.4-0.2-0.9,0-1.3c0.3-0.9,1.1-1.7,1.9-2.5c0.8-0.8,1.6-1.6,2.4-2.3c1.5-1.5,3-2.8,4.4-3.9
						c1.3-1,2.5-1.8,3.4-2.3c0.4-0.2,0.8-0.4,1-0.5c0.2-0.1,0.4-0.2,0.4-0.2s-0.1,0-0.4,0.1c-0.3,0.1-0.6,0.2-1.1,0.4
						c-0.5,0.2-1,0.5-1.6,0.8c-0.6,0.3-1.3,0.7-2,1.2c-1.4,1-3,2.2-4.6,3.7c-0.8,0.7-1.6,1.5-2.4,2.3c-0.8,0.8-1.7,1.6-2.2,2.9
						c-0.2,0.6-0.2,1.4,0.1,2c0.3,0.7,0.8,1.1,1.3,1.5c1.1,0.6,2.3,0.8,3.3,1c2.2,0.3,4.2,0.4,5.9,0.3c1.7,0,3.2-0.2,4.2-0.4
						c1-0.2,1.6-0.3,1.6-0.3S942.1,368.7,941.1,368.7z"/>
					<path id="XMLID_19_" class="st33" d="M977.2,368.8c-12.4,6.5-26.4,10-40.4,10.3c1.5,6.9,1.9,13.9,1.2,20.9
						c9.5,2.2,19.9,1.3,28.2-3.9C974.4,391,980,378.2,977.2,368.8z"/>
					<g id="XMLID_131_">
						<path id="XMLID_156_" class="st1" d="M977.7,371.8c-0.1-1-0.3-2-0.6-3c-12.4,6.5-26.4,10-40.4,10.3c0.1,0.4,0.2,0.9,0.3,1.3
							C951,381,965.2,378,977.7,371.8z"/>
						<path id="XMLID_165_" class="st34" d="M946.9,401.1c6.8,0.1,13.5-1.4,19.2-5c5.3-3.3,9.6-9.8,11.1-16.5
							C964.5,382,953.2,390.2,946.9,401.1z"/>
					</g>
					<path id="XMLID_24_" class="st25" d="M966.7,412.4c-5.2,3.8-11.6,5.6-18,5c-0.3-1.4-0.3-3.6-0.7-5c0.7-0.4,2.3-1.9,3-2.3
						c-3.5,0.2-6.9-0.1-10.3-0.7c1.1,1.2,1.5,2.6,2.6,3.8c-0.2,1.1-0.8,2.2-1,3.3c-2.6,0.7-5.5-1.7-5.8-4.3
						c-0.2-2.3-0.4-5.2,0.4-7.3c8.5,3.2,25.2,2.3,33.5-6C970.5,404.7,970.5,409.6,966.7,412.4z"/>
					<path id="XMLID_11_" class="st35" d="M1010,336c0.3-5,5.6-17,11.8-17.3c-3.4,4-9.3,10.7-10.2,15.9c1.9-0.8,6.7-3.9,8-0.9
						c-4.9-0.2-10.7,6.2-11.7,10.6C1007.6,342,1007.7,337.5,1010,336z"/>
				</g>
				<path id="XMLID_217_" class="st6" d="M947.1,449.7c0,0,26.5-13.4,42.8-36.3C989.9,413.4,949.7,444.4,947.1,449.7z"/>
				<path id="XMLID_44_" class="st21" d="M1143.3,495c-4.8,0-9.8-1-14.3-0.7c-3.9,0.3-14.3,3.4-16.6,7c-1.1,1.8-1.9,8.4-1.1,10.4
					c1.3,3.3,7,4.8,10.1,5.6c5,1.3,8.8,0.6,13.9,0.4c3.4-0.1,7.8,1.3,11.1,0C1156.4,513.8,1153.5,498.2,1143.3,495z"/>
				<path id="XMLID_45_" class="st21" d="M1148,515.7c2.1,4.9,1,9.9-1,14.3c-2.4,5.2-7.3,5.6-13,5.7c-5.9,0.1-12.3-0.5-17.2-3.8
					c-2.8-1.9-5.3-3.1-5.8-6.4c-0.6-4,1.1-9.4,5-11.1c5.3-2.3,13.8-0.3,19.5-0.3c2.6,0,5.6-0.3,8.1,0.4
					C1145.2,514.8,1146.4,516,1148,515.7z"/>
				<path id="XMLID_258_" class="st20" d="M1120,529c-6.1-1.7-3.9-8.8-2.5-15.2c-0.5,0.1-1,0.3-1.5,0.5c-3.9,1.7-5.6,7.1-5,11.1
					c0.5,3.3,3,4.5,5.8,6.4c4.9,3.3,11.3,3.9,17.2,3.8c5.6-0.1,10.5-0.5,12.9-5.5C1138,532.3,1129,532.8,1120,529z"/>
				<path id="XMLID_46_" class="st21" d="M1146,530.7c0,4.7,0.7,10.5-2.9,14c-3.1,3-8.9,2.7-13.1,3.3c-5.8,0.9-8.9-0.9-14-4.1
					c-2.2-1.4-4.6-2.2-4.9-5.2c-0.4-3.6,2.1-6.5,5.3-7.5c5.4-1.7,10.7,0.8,16.2,1.1C1137.1,532.6,1141.7,531,1146,530.7z"/>
				<path id="XMLID_266_" class="st20" d="M1119,541c-2.5-1.6-1.6-6,0-10.3c-0.9,0.1-1.8,0.2-2.6,0.5c-3.1,1-5.7,3.9-5.3,7.5
					c0.4,3,2.8,3.8,4.9,5.2c5.1,3.2,8.2,4.9,14,4.1c4.2-0.6,10-0.4,13.1-3.3c1-1,1.7-2.1,2.1-3.4
					C1136.5,543.9,1127.4,544.6,1119,541z"/>
				<g id="XMLID_235_">
					<path id="XMLID_246_" class="st20" d="M1140.8,512c-5.4-0.3-19.8,1.3-21.8-3c-5.8-12.9,13.3-15.3,25.3-13.6
						c-0.3-0.1-0.7-0.3-1-0.4c-4.8,0-9.8-1-14.3-0.7c-3.9,0.3-14.3,3.4-16.6,7c-1.1,1.8-1.9,8.4-1.1,10.4c1.3,3.3,7,4.8,10.1,5.6
						c5,1.3,8.8,0.6,13.9,0.4c3.4-0.1,7.8,1.3,11.1,0c2.9-1.1,4.7-3.3,5.6-5.8C1148.4,512.2,1144.7,512.2,1140.8,512z"/>
				</g>
			</g>
		</g>
		<g id="XMLID_116_">
			<path id="XMLID_4_" class="st6" d="M1030,66.9c3.9-3.4,10.3-3.6,14.4-0.3c-6.1-0.1-11.8,3.7-15.5,8.6c-3.7,4.9-5.7,10.8-7.6,16.6
				c1.5-4.6-15.8-17.1-18.6-19.7c8.1-0.4,15.3,5.1,19,12.2C1024.4,78.7,1025.1,71.1,1030,66.9z"/>
			<path id="XMLID_119_" class="st6" d="M1159.1,110.5c0.6-5.2,1.7-10.5,5.1-14.5c3.4-3.9,9.7-5.8,13.9-2.7
				c-5.1-1.1-10.3,2.5-12.8,7.1s-3.1,10-3.5,15.2c-4.8-4.7-9.6-9.4-14.4-14.1c-3.3-3.2-7.8-6.7-12.1-5.1
				C1145.6,92.3,1154.7,102.5,1159.1,110.5z"/>
			<path id="XMLID_122_" class="st6" d="M1207.7,184.1c0.3-3,1-6.2,3-8.5c2-2.3,5.7-3.4,8.2-1.6c-3-0.6-6.1,1.5-7.6,4.2
				c-1.5,2.7-1.8,5.9-2.1,8.9c-2.8-2.8-5.7-5.5-8.5-8.3c-1.9-1.9-4.6-4-7.1-3C1199.8,173.4,1205.1,179.4,1207.7,184.1z"/>
		</g>
	</g>
</g>
</svg>
